<svg width="589" height="303" viewBox="0 0 589 303" fill="none" xmlns="http://www.w3.org/2000/svg">
<g clip-path="url(#clip0_501_16954)">
<path opacity="0.4" d="M64.4886 172.218C64.598 171.999 64.7075 171.67 64.817 171.451C65.036 171.123 65.1455 170.795 65.255 170.466C65.3645 170.138 65.474 169.919 65.5834 169.59C65.6929 169.481 65.6929 169.371 65.6929 169.262C65.8024 169.043 65.8024 168.933 65.9119 168.824C68.7586 162.802 72.1528 156.889 76.0944 150.758C79.2695 144.627 83.2111 138.495 87.4812 132.474C87.8096 132.036 88.1381 131.488 88.4666 131.05C89.6709 129.408 90.8753 127.875 92.0797 126.342C93.2841 124.7 94.5979 123.167 96.0213 121.525C96.3498 121.087 96.6782 120.758 97.0067 120.32C97.3351 119.992 97.6636 119.554 97.9921 119.225C99.5249 117.474 101.058 115.612 102.7 113.86C103.357 113.094 104.014 112.437 104.78 111.671L104.89 111.561C107.518 108.824 110.255 106.087 113.102 103.35C113.32 103.131 113.43 103.021 113.649 102.802C113.977 102.474 114.306 102.145 114.634 101.817C116.824 99.7364 119.014 97.7656 121.313 95.7948L121.532 95.5758C121.751 95.4663 121.861 95.2474 122.08 95.1379C122.408 94.8094 122.737 94.5904 123.065 94.262C125.474 92.1817 127.992 90.1014 130.62 88.0211C136.861 83.0941 143.43 78.3861 150.328 74.0066C156.24 70.1745 162.262 66.5613 168.503 63.1672C185.583 53.8607 204.087 46.087 223.466 40.5031C223.795 40.3936 224.123 40.2841 224.451 40.1746C226.97 39.5177 229.488 38.7512 232.006 38.2038C232.335 38.0943 232.663 37.9848 232.992 37.9848C233.101 37.9848 233.211 37.9848 233.32 37.8753C247.773 34.3717 262.554 32.0724 277.663 31.306C281.386 31.087 285.108 30.9775 288.831 30.9775C292.444 30.9775 295.948 31.087 299.232 31.4155C302.845 31.744 306.349 32.1819 309.634 32.7294C337.663 37.7658 354.633 53.6417 367.334 74.1161C374.451 85.6124 380.363 98.532 386.057 111.671C386.714 113.094 387.261 114.517 387.918 115.941C388.356 117.036 388.903 118.13 389.341 119.225C392.079 125.576 394.816 131.926 397.772 138.167C405.108 153.824 413.429 168.824 424.816 181.305C443.21 209.225 446.385 236.269 435.108 257.729C434.779 258.057 431.932 261.451 430.071 265.612C418.027 281.707 396.677 293.75 366.458 299.115C342.371 303.385 262.116 323.203 188.43 316.195C179.89 315.429 171.349 314.225 163.028 312.582C153.503 307.765 144.634 300.21 143.32 289.042C143.211 288.385 143.211 287.619 143.211 286.962C143.101 281.597 140.255 278.641 135.656 277.217C125.912 274.261 107.956 278.093 90.3279 279.955C74.671 281.597 59.2331 281.597 49.9266 273.714C28.2478 255.648 57.1528 188.203 64.4886 172.218Z" fill="url(#paint0_linear_501_16954)"/>
<path opacity="0.4" d="M431.058 277.587C452.96 277.587 470.715 259.832 470.715 237.931C470.715 216.029 452.96 198.275 431.058 198.275C409.157 198.275 391.402 216.029 391.402 237.931C391.402 259.832 409.157 277.587 431.058 277.587Z" fill="url(#paint1_linear_501_16954)"/>
<path opacity="0.4" d="M65.7568 106.172C70.8628 106.172 75.002 102.033 75.002 96.927C75.002 91.8211 70.8628 87.6819 65.7568 87.6819C60.6509 87.6819 56.5117 91.8211 56.5117 96.927C56.5117 102.033 60.6509 106.172 65.7568 106.172Z" fill="url(#paint2_linear_501_16954)"/>
<path d="M432.328 141.519V282.622H197.055V141.519C197.055 136.846 201.017 132.986 205.893 132.986H423.388C428.264 132.986 432.328 136.745 432.328 141.519Z" fill="#73678C"/>
<path d="M422.065 147.411H206.906V272.667H422.065V147.411Z" fill="#36255A"/>
<path d="M445.838 271.956V282.216C445.838 285.06 443.501 287.397 440.657 287.397H188.724C185.879 287.397 183.543 285.06 183.543 282.216V271.956H445.838Z" fill="#9B92AD"/>
<path d="M314.289 174.329H230.969C229.503 174.329 228.525 173.352 228.525 171.886C228.525 170.42 229.503 169.442 230.969 169.442H314.534C316 169.442 316.977 170.42 316.977 171.886C316.733 173.352 315.755 174.329 314.289 174.329Z" fill="white"/>
<path d="M395.166 186.791H230.969C229.503 186.791 228.525 185.813 228.525 184.347C228.525 182.881 229.503 181.904 230.969 181.904H395.166C396.633 181.904 397.61 182.881 397.61 184.347C397.61 185.569 396.633 186.791 395.166 186.791Z" fill="white"/>
<path d="M355.094 198.275H230.969C229.503 198.275 228.525 197.297 228.525 195.831C228.525 194.365 229.503 193.388 230.969 193.388H355.094C356.56 193.388 357.538 194.365 357.538 195.831C357.538 197.053 356.316 198.275 355.094 198.275Z" fill="white"/>
<path d="M323.086 246.166H230.969C229.503 246.166 228.525 245.189 228.525 243.722C228.525 242.256 229.503 241.279 230.969 241.279H323.086C324.552 241.279 325.529 242.256 325.529 243.722C325.529 244.944 324.307 246.166 323.086 246.166Z" fill="white"/>
<path d="M297.185 234.682H230.969C229.503 234.682 228.525 233.705 228.525 232.239C228.525 230.773 229.503 229.795 230.969 229.795H297.185C298.651 229.795 299.629 230.773 299.629 232.239C299.629 233.705 298.407 234.682 297.185 234.682Z" fill="white"/>
<path d="M252.952 222.22H230.717C229.251 222.22 228.273 221.243 228.273 219.777C228.273 218.311 229.251 217.333 230.717 217.333H252.952C254.418 217.333 255.395 218.311 255.395 219.777C255.395 220.999 254.418 222.22 252.952 222.22Z" fill="#744CC6"/>
<path d="M380.991 222.22H332.611C331.145 222.22 330.168 221.243 330.168 219.777C330.168 218.311 331.145 217.333 332.611 217.333H380.991C382.457 217.333 383.434 218.311 383.434 219.777C383.434 221.243 382.457 222.22 380.991 222.22Z" fill="white"/>
<path d="M351.668 174.329H330.898C329.432 174.329 328.455 173.352 328.455 171.886C328.455 170.42 329.432 169.443 330.898 169.443H351.668C353.134 169.443 354.111 170.42 354.111 171.886C354.111 173.352 352.889 174.329 351.668 174.329Z" fill="#49D1FF"/>
<path d="M383.191 174.329H362.422C360.956 174.329 359.979 173.352 359.979 171.886C359.979 170.42 360.956 169.443 362.422 169.443H383.191C384.657 169.443 385.634 170.42 385.634 171.886C385.634 173.352 384.413 174.329 383.191 174.329Z" fill="#49D1FF"/>
<path d="M392.228 198.275H371.459C369.993 198.275 369.016 197.297 369.016 195.831C369.016 194.365 369.993 193.388 371.459 193.388H392.228C393.694 193.388 394.672 194.365 394.672 195.831C394.672 197.053 393.694 198.275 392.228 198.275Z" fill="#744CC6"/>
<path d="M320.641 222.22H272.506C271.04 222.22 270.062 221.243 270.062 219.777C270.062 218.311 271.04 217.333 272.506 217.333H320.886C322.352 217.333 323.329 218.311 323.329 219.777C323.329 221.243 322.107 222.22 320.641 222.22Z" fill="white"/>
<path d="M320.632 234.682H307.682C306.216 234.682 305.238 233.705 305.238 232.239C305.238 230.773 306.216 229.795 307.682 229.795H320.632C322.098 229.795 323.075 230.773 323.075 232.239C323.32 233.705 322.098 234.682 320.632 234.682Z" fill="#744CC6"/>
<path d="M141.469 55.99V55.49H140.969V55.99H141.469ZM141.469 170.093H140.969V170.593H141.469V170.093ZM181.111 170.447C181.306 170.251 181.306 169.935 181.111 169.74L177.929 166.558C177.734 166.362 177.417 166.362 177.222 166.558C177.027 166.753 177.027 167.069 177.222 167.265L180.05 170.093L177.222 172.922C177.027 173.117 177.027 173.433 177.222 173.629C177.417 173.824 177.734 173.824 177.929 173.629L181.111 170.447ZM247.997 55.49H141.469V56.49H247.997V55.49ZM140.969 55.99V170.093H141.969V55.99H140.969ZM141.469 170.593H180.757V169.593H141.469V170.593Z" fill="#36255A"/>
<path d="M501.609 55.99H502.109V55.49H501.609V55.99ZM501.609 232.239V232.739H502.109V232.239H501.609ZM446.241 231.885C446.046 232.08 446.046 232.397 446.241 232.592L449.423 235.774C449.618 235.969 449.935 235.969 450.13 235.774C450.325 235.579 450.325 235.262 450.13 235.067L447.302 232.239L450.13 229.41C450.325 229.215 450.325 228.898 450.13 228.703C449.935 228.508 449.618 228.508 449.423 228.703L446.241 231.885ZM360.508 56.49H501.609V55.49H360.508V56.49ZM501.109 55.99V232.239H502.109V55.99H501.109ZM501.609 231.739H446.595V232.739H501.609V231.739Z" fill="#36255A"/>
<path d="M534.427 162.562H468.786C462.079 162.562 456.717 157.199 456.717 150.492V111.387C456.717 104.68 462.079 99.3176 468.786 99.3176H534.427C541.134 99.3176 546.496 104.68 546.496 111.387V150.492C546.496 157.199 541.134 162.562 534.427 162.562Z" fill="white" stroke="#36255A"/>
<path d="M509.081 129.513H506.635C506.329 128.392 505.922 127.474 505.412 126.455L507.145 124.722C507.858 124.009 507.858 122.887 507.145 122.174L505.718 120.747C505.004 120.034 503.883 120.034 503.17 120.747L501.437 122.48C500.519 121.868 499.5 121.46 498.379 121.257V118.912C498.379 117.893 497.564 117.078 496.544 117.078H494.608C493.588 117.078 492.773 117.893 492.773 118.912V121.257C491.652 121.562 490.633 121.97 489.715 122.48L487.982 120.747C487.269 120.034 486.148 120.034 485.434 120.747L484.109 122.174C483.396 122.887 483.396 124.009 484.109 124.722L485.842 126.455C485.23 127.372 484.823 128.392 484.619 129.513H482.173C481.153 129.513 480.338 130.328 480.338 131.347V133.284C480.338 134.303 481.153 135.119 482.173 135.119H484.517C484.823 136.24 485.23 137.259 485.74 138.177L484.109 139.909C483.803 140.215 483.6 140.725 483.6 141.132C483.6 141.642 483.803 142.05 484.109 142.356L485.536 143.782C485.842 144.19 486.352 144.292 486.759 144.292C487.167 144.292 487.677 144.088 487.982 143.782L489.613 142.152C490.531 142.661 491.55 143.171 492.671 143.375V145.719C492.671 146.738 493.486 147.554 494.506 147.554H496.442C497.462 147.554 498.277 146.738 498.277 145.719V143.375C499.398 143.069 500.417 142.661 501.335 142.152L502.966 143.782C503.271 144.19 503.781 144.292 504.189 144.292C504.596 144.292 505.106 144.088 505.412 143.782L506.839 142.356C507.552 141.642 507.552 140.521 506.839 139.807L505.208 138.075C505.718 137.157 506.227 136.138 506.431 135.017H508.776C509.795 135.017 510.61 134.201 510.61 133.182V131.245C510.916 130.328 510.101 129.513 509.081 129.513ZM495.729 137.667C492.773 137.667 490.327 135.221 490.327 132.265C490.327 129.717 492.161 127.474 494.608 126.965C494.913 126.863 495.321 126.863 495.729 126.863C496.137 126.863 496.442 126.863 496.85 126.965C499.296 127.474 501.131 129.717 501.131 132.265C501.131 135.221 498.685 137.667 495.729 137.667Z" fill="#744CC6"/>
<path d="M522.946 120.034H521.825C521.723 119.524 521.519 119.116 521.214 118.709L522.029 117.893C522.335 117.587 522.335 117.078 522.029 116.772L521.417 116.16C521.112 115.855 520.602 115.855 520.296 116.16L519.583 116.874C519.175 116.568 518.665 116.466 518.258 116.262V115.141C518.258 114.733 517.85 114.326 517.442 114.326H516.525C516.117 114.326 515.709 114.733 515.709 115.141V116.262C515.2 116.364 514.792 116.568 514.384 116.874L513.671 116.16C513.365 115.855 512.856 115.855 512.55 116.16L511.938 116.772C511.632 117.078 511.632 117.587 511.938 117.893L512.652 118.709C512.346 119.116 512.244 119.626 512.04 120.034H510.919C510.511 120.034 510.104 120.441 510.104 120.849V121.766C510.104 122.174 510.511 122.582 510.919 122.582H512.04C512.142 123.091 512.346 123.499 512.55 123.907L511.836 124.62C511.734 124.722 511.632 124.926 511.632 125.232C511.632 125.436 511.734 125.64 511.836 125.843L512.448 126.455C512.652 126.659 512.856 126.659 513.059 126.659C513.263 126.659 513.467 126.557 513.671 126.455L514.384 125.741C514.792 125.945 515.302 126.149 515.709 126.353V127.372C515.709 127.78 516.117 128.188 516.525 128.188H517.442C517.85 128.188 518.258 127.78 518.258 127.372V126.353C518.767 126.251 519.175 126.047 519.583 125.741L520.296 126.455C520.5 126.659 520.704 126.659 520.908 126.659C521.112 126.659 521.315 126.557 521.519 126.455L522.131 125.843C522.437 125.538 522.437 125.028 522.131 124.722L521.417 124.009C521.621 123.601 521.825 123.091 521.927 122.684H523.048C523.456 122.684 523.864 122.276 523.864 121.868V120.951C523.762 120.441 523.354 120.034 522.946 120.034ZM516.933 123.703C515.608 123.703 514.486 122.582 514.486 121.257C514.486 120.136 515.302 119.116 516.423 118.912C516.627 118.912 516.729 118.912 516.933 118.912C517.136 118.912 517.238 118.912 517.442 118.912C518.563 119.116 519.379 120.136 519.379 121.257C519.277 122.684 518.258 123.703 516.933 123.703Z" fill="#744CC6"/>
<path d="M383.678 63.1585C383.678 67.6831 381.84 71.7835 378.871 74.7528C375.901 77.7221 371.801 79.5602 367.276 79.5602H262.15C253.065 79.5602 245.713 72.2077 245.713 63.1231C245.713 58.5985 247.551 54.4981 250.52 51.5288C252.323 49.7261 254.55 48.3121 257.06 47.4991C258.191 34.4202 269.184 24.1691 282.546 24.1691C282.97 24.1691 283.394 24.1691 283.854 24.2045C289.686 13.3878 301.104 6 314.289 6C331.433 6 345.643 18.478 348.365 34.8444C349.461 34.5969 350.592 34.4555 351.794 34.4555C359.217 34.4555 365.403 39.6871 366.923 46.6508H367.276C376.326 46.7215 383.678 54.0739 383.678 63.1585Z" fill="#49D1FF"/>
<path fill-rule="evenodd" clip-rule="evenodd" d="M330.135 45.1582L328.06 47.2327C327.354 47.9387 327.354 49.0833 328.06 49.7892C328.607 50.3356 329.416 50.4591 330.081 50.1597C328.815 57.5122 322.408 63.1062 314.694 63.1062C306.51 63.1062 299.797 56.8104 299.134 48.7981L301.326 46.6054C302.032 45.8995 302.032 44.7549 301.326 44.0489C300.851 43.5741 300.178 43.4186 299.573 43.5826C301.309 36.8512 307.421 31.8781 314.694 31.8781C322.524 31.8781 329.008 37.6419 330.135 45.1582ZM333.574 43.8223C331.861 34.9575 324.059 28.2627 314.694 28.2627C305.005 28.2627 296.99 35.428 295.659 44.7486L294.959 44.0489C294.253 43.343 293.108 43.343 292.403 44.0489C291.697 44.7549 291.697 45.8995 292.403 46.6054L295.586 49.7891L295.602 49.805C296.745 59.3346 304.857 66.7216 314.694 66.7216C324.735 66.7216 332.979 59.025 333.848 49.2094L334.427 49.7892C335.133 50.4952 336.278 50.4952 336.984 49.7892C337.69 49.0833 337.69 47.9387 336.984 47.2327L333.8 44.049L333.574 43.8223Z" fill="white"/>
<path d="M161.143 118.075H121.791C117.605 118.075 114.256 114.726 114.256 110.539V87.0955C114.256 82.9092 117.605 79.5601 121.791 79.5601H161.143C165.33 79.5601 168.679 82.9092 168.679 87.0955V110.539C168.679 114.726 165.33 118.075 161.143 118.075Z" fill="#36255A"/>
<path d="M133.848 102.418V103.925L123.801 99.7386V98.2315L133.848 94.0452V95.5523L125.475 99.0688L133.848 102.418Z" fill="white"/>
<path d="M138.035 109.953H136.863L144.901 87.6819H146.073L138.035 109.953Z" fill="white"/>
<path d="M159.135 99.7391L149.088 103.925V102.418L157.461 98.9018L149.088 95.3853V93.8782L159.135 98.0645V99.7391Z" fill="white"/>
<path d="M141.468 59.5519C143.435 59.5519 145.03 57.9572 145.03 55.99C145.03 54.0227 143.435 52.428 141.468 52.428C139.501 52.428 137.906 54.0227 137.906 55.99C137.906 57.9572 139.501 59.5519 141.468 59.5519Z" fill="#36255A"/>
<path d="M501.607 59.5519C503.574 59.5519 505.169 57.9572 505.169 55.99C505.169 54.0227 503.574 52.428 501.607 52.428C499.64 52.428 498.045 54.0227 498.045 55.99C498.045 57.9572 499.64 59.5519 501.607 59.5519Z" fill="#36255A"/>
<path d="M501.607 202.956C503.574 202.956 505.169 201.361 505.169 199.394C505.169 197.426 503.574 195.832 501.607 195.832C499.64 195.832 498.045 197.426 498.045 199.394C498.045 201.361 499.64 202.956 501.607 202.956Z" fill="#36255A"/>
</g>
<defs>
<linearGradient id="paint0_linear_501_16954" x1="130.656" y1="73.0028" x2="360.133" y2="369.711" gradientUnits="userSpaceOnUse">
<stop stop-color="#49D1FF"/>
<stop offset="0.5624" stop-color="#49D1FF" stop-opacity="0"/>
</linearGradient>
<linearGradient id="paint1_linear_501_16954" x1="470.738" y1="237.939" x2="391.378" y2="237.939" gradientUnits="userSpaceOnUse">
<stop stop-color="#49D1FF"/>
<stop offset="0.5624" stop-color="#49D1FF" stop-opacity="0"/>
</linearGradient>
<linearGradient id="paint2_linear_501_16954" x1="75.0073" y1="96.9289" x2="56.5061" y2="96.9289" gradientUnits="userSpaceOnUse">
<stop stop-color="#49D1FF"/>
<stop offset="0.919147" stop-color="#49D1FF" stop-opacity="0"/>
</linearGradient>
<clipPath id="clip0_501_16954">
<rect width="589" height="303" fill="white"/>
</clipPath>
</defs>
</svg>
